<?xml version="1.0" encoding="UTF-8"?>
<svg id="Camada_1" data-name="Camada 1" xmlns="http://www.w3.org/2000/svg" viewBox="0 0 800 800">
  <defs>
    <style>
      .cls-1 {
        fill: #00b5e2;
      }
    </style>
  </defs>
  <path class="cls-1" d="M335.78,269.2V125.12h-172.76c-21.74,0-39.37,17.62-39.37,39.37v267.15l212.13-162.44Z"/>
  <path class="cls-1" d="M464.22,270.17V126.09h172.76c21.74,0,39.37,17.62,39.37,39.37v267.15s-212.13-162.44-212.13-162.44Z"/>
  <path class="cls-1" d="M676.35,495.39v154.52c0,13.8-11.17,24.97-24.97,24.97h-160.24c-13.8,0-24.97-11.17-24.97-24.97v-126.17h40.93c15.08,0,21.1-19.46,8.64-27.97l-107.09-88.72c-5.2-3.56-12.07-3.56-17.28,0l-107.09,88.72c-12.44,8.5-6.42,27.97,8.64,27.97h40.93v126.17c0,13.8-11.17,24.97-24.97,24.97h-160.24c-13.8,0-24.97-11.17-24.97-24.97v-154.52c0-8.23,4.07-15.96,10.88-20.61l251.38-187.29c8.5-5.8,19.68-5.8,28.18,0l251.38,187.29c6.81,4.65,10.88,12.38,10.88,20.61Z"/>
</svg>